<?xml version="1.0" encoding="utf-8" ?>
<svg xmlns="http://www.w3.org/2000/svg" xmlns:xlink="http://www.w3.org/1999/xlink" width="320" height="220">
	<rect fill="white" transform="matrix(1 0 -0 -1 0 220)" width="320" height="220"/>
	<path fill="none" stroke="#CCC" stroke-width="2" stroke-miterlimit="5" transform="matrix(1 0 -0 -1 0 220)" d="M50 70C95 170 160 20 230 140"/>
	<path fill="red" fill-opacity="0.4509804" transform="matrix(1 0 -0 -1 0 220)" d="M60.031136 65.485992Q71.955994 91.98568 87.236221 95.091705Q93.484947 96.361885 102.47395 94.497078Q108.61176 93.223763 122.12679 88.72477Q139.00822 83.105141 148.11884 81.353386Q164.37785 78.227158 178.16444 81.085281Q212.52286 88.208183 239.50157 134.45741Q239.63763 134.69066 239.76208 134.9303Q239.88654 135.16995 239.9991 135.41542Q240.11163 135.66089 240.21199 135.91156Q240.31235 136.16226 240.4003 136.41757Q240.48825 136.67288 240.56357 136.93219Q240.63889 137.19151 240.70139 137.45422Q240.76387 137.71692 240.81339 137.98238Q240.86292 138.24783 240.89935 138.5154Q240.93579 138.78296 240.95908 139.05199Q240.98235 139.32103 240.9924 139.59088Q241.00243 139.86072 240.99921 140.13074Q240.996 140.40076 240.97955 140.67029Q240.9631 140.93982 240.93344 141.20822Q240.90378 141.47662 240.86099 141.74326Q240.81819 142.00989 240.76236 142.27408Q240.70654 142.53827 240.63782 142.79941Q240.56909 143.06055 240.48764 143.31801Q240.40619 143.57547 240.31219 143.82863Q240.2182 144.08177 240.11189 144.33Q240.00562 144.57823 239.88725 144.82095Q239.76891 145.06367 239.63879 145.30031Q239.50868 145.53693 239.36713 145.76688Q239.22556 145.99683 239.07286 146.21954Q238.92017 146.44226 238.75674 146.65723Q238.59332 146.87219 238.41956 147.07889Q238.24579 147.28558 238.06207 147.48351Q237.87836 147.68141 237.68517 147.87007Q237.49196 148.05875 237.28973 148.2377Q237.08752 148.41666 236.87677 148.58546Q236.66602 148.75429 236.44724 148.91257Q236.22844 149.07083 236.00214 149.21817Q235.77585 149.36551 235.54259 149.50157Q235.30933 149.63763 235.06969 149.76208Q234.83005 149.88654 234.58459 149.99908Q234.33911 150.11163 234.08841 150.21199Q233.83772 150.31235 233.58241 150.4003Q233.32712 150.48825 233.06779 150.56355Q232.80847 150.63887 232.54578 150.70137Q232.28307 150.76385 232.01761 150.81339Q231.75214 150.86292 231.48457 150.89935Q231.21701 150.93579 230.94797 150.95906Q230.67894 150.98233 230.4091 150.99239Q230.13925 151.00243 229.86923 150.99922Q229.59921 150.996 229.32968 150.97955Q229.06015 150.9631 228.79176 150.93344Q228.52336 150.90378 228.25674 150.86099Q227.99011 150.81821 227.72591 150.76237Q227.4617 150.70654 227.20056 150.63782Q226.93942 150.56909 226.68198 150.48764Q226.4245 150.40619 226.17136 150.31221Q225.9182 150.21822 225.66995 150.11192Q225.42172 150.00562 225.179 149.88727Q224.93628 149.76892 224.69966 149.63881Q224.46304 149.5087 224.23311 149.36713Q224.00314 149.22556 223.78041 149.07288Q223.55768 148.9202 223.34271 148.75676Q223.12775 148.59334 222.92107 148.41956Q222.71439 148.24579 222.51648 148.06207Q222.31857 147.87836 222.1299 147.68515Q221.94124 147.49196 221.76228 147.28973Q221.58333 147.08751 221.41452 146.87675Q221.24571 146.66599 221.08746 146.4472Q220.92917 146.22842 220.78183 146.00212Q220.63449 145.77583 220.49843 145.54259Q198.45877 107.76031 173.69853 102.62723Q164.21567 100.66132 152.27283 102.95765Q144.58362 104.4361 129.07542 109.59859Q114.34007 114.50381 106.9428 116.03841Q93.530006 118.82096 82.853882 116.65082Q56.521786 111.29828 39.968864 74.514008Q39.858055 74.267761 39.759457 74.016365Q39.660862 73.764984 39.574718 73.509056Q39.488575 73.253128 39.415092 72.993286Q39.34161 72.733429 39.280968 72.470291Q39.220325 72.207153 39.172668 71.94136Q39.125011 71.675568 39.090454 71.407761Q39.055893 71.139946 39.034515 70.870758Q39.013138 70.601562 39.004997 70.33165Q38.996857 70.061737 39.001968 69.791756Q39.00708 69.521767 39.025433 69.252357Q39.043785 68.982941 39.075336 68.71476Q39.106888 68.446571 39.151558 68.18026Q39.196232 67.91394 39.253918 67.650146Q39.311607 67.386345 39.382168 67.125694Q39.452728 66.865044 39.535992 66.60817Q39.619255 66.351288 39.715027 66.098801Q39.810795 65.846321 39.918839 65.598839Q40.026878 65.351364 40.146935 65.109482Q40.266991 64.867599 40.398766 64.631905Q40.530548 64.39621 40.673733 64.167259Q40.816917 63.938309 40.971169 63.716667Q41.125416 63.495026 41.290352 63.281219Q41.455288 63.067406 41.630516 62.861946Q41.805744 62.656487 41.990845 62.459873Q42.175941 62.26326 42.370468 62.075966Q42.564995 61.888672 42.768475 61.711151Q42.971954 61.533623 43.183899 61.366302Q43.395844 61.198975 43.615746 61.042248Q43.835648 60.885525 44.062973 60.739784Q44.290298 60.594036 44.524502 60.459621Q44.758705 60.325203 44.999222 60.202442Q45.239738 60.079678 45.485989 59.968864Q45.732239 59.858051 45.983631 59.759453Q46.235023 59.660858 46.490948 59.574718Q46.746872 59.488571 47.006714 59.415092Q47.26656 59.341606 47.529697 59.280964Q47.792831 59.220322 48.058628 59.172665Q48.324425 59.125004 48.592243 59.090446Q48.860058 59.055885 49.129246 59.034515Q49.39843 59.013138 49.668343 59.004993Q49.938255 58.996853 50.208244 59.001968Q50.47823 59.00708 50.747639 59.025436Q51.017044 59.043785 51.285229 59.075336Q51.553413 59.106888 51.819729 59.151562Q52.086044 59.196236 52.349846 59.253922Q52.613647 59.311607 52.874302 59.382168Q53.134956 59.452728 53.39183 59.535992Q53.648712 59.619255 53.901192 59.715027Q54.153675 59.810799 54.401154 59.918839Q54.648632 60.026882 54.890511 60.146938Q55.132385 60.266991 55.36808 60.398773Q55.603779 60.530552 55.832726 60.673737Q56.061676 60.816921 56.283321 60.971169Q56.504967 61.125416 56.718777 61.290356Q56.932587 61.455288 57.138046 61.630516Q57.343502 61.80574 57.540115 61.990841Q57.736732 62.175941 57.924026 62.370468Q58.11132 62.564995 58.288845 62.768478Q58.46637 62.971954 58.633694 63.183899Q58.801018 63.395844 58.957745 63.615746Q59.114468 63.835648 59.260216 64.062973Q59.405964 64.290298 59.540382 64.524506Q59.674797 64.758705 59.797558 64.999222Q59.920322 65.239738 60.031136 65.485992Z"/>
	<path fill="none" stroke="black" stroke-width="1" stroke-miterlimit="5" transform="matrix(1 0 -0 -1 0 220)" d="M60.031136 65.485992Q71.955994 91.98568 87.236221 95.091705Q93.484947 96.361885 102.47395 94.497078Q108.61176 93.223763 122.12679 88.72477Q139.00822 83.105141 148.11884 81.353386Q164.37785 78.227158 178.16444 81.085281Q212.52286 88.208183 239.50157 134.45741Q239.63763 134.69066 239.76208 134.9303Q239.88654 135.16995 239.9991 135.41542Q240.11163 135.66089 240.21199 135.91156Q240.31235 136.16226 240.4003 136.41757Q240.48825 136.67288 240.56357 136.93219Q240.63889 137.19151 240.70139 137.45422Q240.76387 137.71692 240.81339 137.98238Q240.86292 138.24783 240.89935 138.5154Q240.93579 138.78296 240.95908 139.05199Q240.98235 139.32103 240.9924 139.59088Q241.00243 139.86072 240.99921 140.13074Q240.996 140.40076 240.97955 140.67029Q240.9631 140.93982 240.93344 141.20822Q240.90378 141.47662 240.86099 141.74326Q240.81819 142.00989 240.76236 142.27408Q240.70654 142.53827 240.63782 142.79941Q240.56909 143.06055 240.48764 143.31801Q240.40619 143.57547 240.31219 143.82863Q240.2182 144.08177 240.11189 144.33Q240.00562 144.57823 239.88725 144.82095Q239.76891 145.06367 239.63879 145.30031Q239.50868 145.53693 239.36713 145.76688Q239.22556 145.99683 239.07286 146.21954Q238.92017 146.44226 238.75674 146.65723Q238.59332 146.87219 238.41956 147.07889Q238.24579 147.28558 238.06207 147.48351Q237.87836 147.68141 237.68517 147.87007Q237.49196 148.05875 237.28973 148.2377Q237.08752 148.41666 236.87677 148.58546Q236.66602 148.75429 236.44724 148.91257Q236.22844 149.07083 236.00214 149.21817Q235.77585 149.36551 235.54259 149.50157Q235.30933 149.63763 235.06969 149.76208Q234.83005 149.88654 234.58459 149.99908Q234.33911 150.11163 234.08841 150.21199Q233.83772 150.31235 233.58241 150.4003Q233.32712 150.48825 233.06779 150.56355Q232.80847 150.63887 232.54578 150.70137Q232.28307 150.76385 232.01761 150.81339Q231.75214 150.86292 231.48457 150.89935Q231.21701 150.93579 230.94797 150.95906Q230.67894 150.98233 230.4091 150.99239Q230.13925 151.00243 229.86923 150.99922Q229.59921 150.996 229.32968 150.97955Q229.06015 150.9631 228.79176 150.93344Q228.52336 150.90378 228.25674 150.86099Q227.99011 150.81821 227.72591 150.76237Q227.4617 150.70654 227.20056 150.63782Q226.93942 150.56909 226.68198 150.48764Q226.4245 150.40619 226.17136 150.31221Q225.9182 150.21822 225.66995 150.11192Q225.42172 150.00562 225.179 149.88727Q224.93628 149.76892 224.69966 149.63881Q224.46304 149.5087 224.23311 149.36713Q224.00314 149.22556 223.78041 149.07288Q223.55768 148.9202 223.34271 148.75676Q223.12775 148.59334 222.92107 148.41956Q222.71439 148.24579 222.51648 148.06207Q222.31857 147.87836 222.1299 147.68515Q221.94124 147.49196 221.76228 147.28973Q221.58333 147.08751 221.41452 146.87675Q221.24571 146.66599 221.08746 146.4472Q220.92917 146.22842 220.78183 146.00212Q220.63449 145.77583 220.49843 145.54259Q198.45877 107.76031 173.69853 102.62723Q164.21567 100.66132 152.27283 102.95765Q144.58362 104.4361 129.07542 109.59859Q114.34007 114.50381 106.9428 116.03841Q93.530006 118.82096 82.853882 116.65082Q56.521786 111.29828 39.968864 74.514008Q39.858055 74.267761 39.759457 74.016365Q39.660862 73.764984 39.574718 73.509056Q39.488575 73.253128 39.415092 72.993286Q39.34161 72.733429 39.280968 72.470291Q39.220325 72.207153 39.172668 71.94136Q39.125011 71.675568 39.090454 71.407761Q39.055893 71.139946 39.034515 70.870758Q39.013138 70.601562 39.004997 70.33165Q38.996857 70.061737 39.001968 69.791756Q39.00708 69.521767 39.025433 69.252357Q39.043785 68.982941 39.075336 68.71476Q39.106888 68.446571 39.151558 68.18026Q39.196232 67.91394 39.253918 67.650146Q39.311607 67.386345 39.382168 67.125694Q39.452728 66.865044 39.535992 66.60817Q39.619255 66.351288 39.715027 66.098801Q39.810795 65.846321 39.918839 65.598839Q40.026878 65.351364 40.146935 65.109482Q40.266991 64.867599 40.398766 64.631905Q40.530548 64.39621 40.673733 64.167259Q40.816917 63.938309 40.971169 63.716667Q41.125416 63.495026 41.290352 63.281219Q41.455288 63.067406 41.630516 62.861946Q41.805744 62.656487 41.990845 62.459873Q42.175941 62.26326 42.370468 62.075966Q42.564995 61.888672 42.768475 61.711151Q42.971954 61.533623 43.183899 61.366302Q43.395844 61.198975 43.615746 61.042248Q43.835648 60.885525 44.062973 60.739784Q44.290298 60.594036 44.524502 60.459621Q44.758705 60.325203 44.999222 60.202442Q45.239738 60.079678 45.485989 59.968864Q45.732239 59.858051 45.983631 59.759453Q46.235023 59.660858 46.490948 59.574718Q46.746872 59.488571 47.006714 59.415092Q47.26656 59.341606 47.529697 59.280964Q47.792831 59.220322 48.058628 59.172665Q48.324425 59.125004 48.592243 59.090446Q48.860058 59.055885 49.129246 59.034515Q49.39843 59.013138 49.668343 59.004993Q49.938255 58.996853 50.208244 59.001968Q50.47823 59.00708 50.747639 59.025436Q51.017044 59.043785 51.285229 59.075336Q51.553413 59.106888 51.819729 59.151562Q52.086044 59.196236 52.349846 59.253922Q52.613647 59.311607 52.874302 59.382168Q53.134956 59.452728 53.39183 59.535992Q53.648712 59.619255 53.901192 59.715027Q54.153675 59.810799 54.401154 59.918839Q54.648632 60.026882 54.890511 60.146938Q55.132385 60.266991 55.36808 60.398773Q55.603779 60.530552 55.832726 60.673737Q56.061676 60.816921 56.283321 60.971169Q56.504967 61.125416 56.718777 61.290356Q56.932587 61.455288 57.138046 61.630516Q57.343502 61.80574 57.540115 61.990841Q57.736732 62.175941 57.924026 62.370468Q58.11132 62.564995 58.288845 62.768478Q58.46637 62.971954 58.633694 63.183899Q58.801018 63.395844 58.957745 63.615746Q59.114468 63.835648 59.260216 64.062973Q59.405964 64.290298 59.540382 64.524506Q59.674797 64.758705 59.797558 64.999222Q59.920322 65.239738 60.031136 65.485992Z"/>
</svg>
